<svg width="110" height="101" viewBox="0 0 110 101" fill="none" xmlns="http://www.w3.org/2000/svg">
<path fill-rule="evenodd" clip-rule="evenodd" d="M18.5708 4.34919V37.7757C18.5708 39.3349 19.832 40.5961 21.3892 40.5961H23.5932V47.2043V59.7308C23.5932 60.4125 24.4463 60.7247 24.8851 60.2002L41.3035 40.5961H87.6504C89.2075 40.5961 90.4688 39.3349 90.4688 37.7757V4.34919C90.4688 2.79205 89.2075 1.53082 87.6504 1.53082H21.3892C19.832 1.53082 18.5708 2.79205 18.5708 4.34919Z" fill="#EBF2F4"/>
<path d="M64.879 1.53021H21.3892C19.832 1.53021 18.5708 2.79348 18.5708 4.34858V37.7772C18.5708 39.3343 19.832 40.5955 21.3892 40.5955H23.5932V47.2037V59.7302C23.5932 60.4139 24.4463 60.7241 24.8851 60.1996L41.3035 40.5955H87.6504C89.2075 40.5955 90.4708 39.3343 90.4708 37.7772V4.34858C90.4708 2.79348 89.2075 1.53021 87.6504 1.53021H81.6259H77.9402" stroke="#95ADB8" stroke-width="1.5"/>
<path fill-rule="evenodd" clip-rule="evenodd" d="M29.6737 71.3892C29.6737 74.4769 27.1697 76.979 24.0819 76.979C20.9941 76.979 18.4941 74.4769 18.4941 71.3892C18.4941 68.3035 20.9941 65.7994 24.0819 65.7994C27.1697 65.7994 29.6737 68.3035 29.6737 71.3892Z" stroke="#95ADB8" stroke-width="1.5"/>
<path d="M12.7434 99.5461V92.7775C12.7434 86.2713 18.0173 81 24.5209 81C31.0245 81 36.3011 86.2713 36.3011 92.7775V99.5461" stroke="#95ADB8" stroke-width="1.5"/>
<path d="M15.4519 58.9551H1.71313V99.5469H46.4948V58.9551H33.5927" stroke="#95ADB8" stroke-width="1.5"/>
<path fill-rule="evenodd" clip-rule="evenodd" d="M41.6586 22.1377C41.6586 24.9581 39.3709 27.2459 36.5505 27.2459C33.7301 27.2459 31.4443 24.9581 31.4443 22.1377C31.4443 19.3173 33.7301 17.0316 36.5505 17.0316C39.3709 17.0316 41.6586 19.3173 41.6586 22.1377Z" stroke="#95ADB8" stroke-width="1.5"/>
<path fill-rule="evenodd" clip-rule="evenodd" d="M61.3552 22.1377C61.3552 24.9581 59.0674 27.2459 56.249 27.2459C53.4266 27.2459 51.1409 24.9581 51.1409 22.1377C51.1409 19.3173 53.4266 17.0316 56.249 17.0316C59.0674 17.0316 61.3552 19.3173 61.3552 22.1377Z" stroke="#95ADB8" stroke-width="1.5"/>
<path fill-rule="evenodd" clip-rule="evenodd" d="M81.0529 22.1377C81.0529 24.9581 78.7652 27.2459 75.9447 27.2459C73.1243 27.2459 70.8386 24.9581 70.8386 22.1377C70.8386 19.3173 73.1243 17.0316 75.9447 17.0316C78.7652 17.0316 81.0529 19.3173 81.0529 22.1377Z" stroke="#95ADB8" stroke-width="1.5"/>
<path d="M58.844 60.4626H109.452" stroke="#95ADB8" stroke-width="1.5"/>
<path d="M59.3572 75.3892H109.965" stroke="#95ADB8" stroke-width="1.5"/>
<path d="M59.8694 90.3157H85.1735" stroke="#95ADB8" stroke-width="1.5"/>
<path d="M73.8651 1.53021H67.3059" stroke="#95ADB8" stroke-width="1.5"/>
</svg>
