<svg width="106" height="95" viewBox="0 0 106 95" fill="none" xmlns="http://www.w3.org/2000/svg">
<path fill-rule="evenodd" clip-rule="evenodd" d="M29.1796 65.5898C29.1796 68.6776 26.6755 71.1796 23.5878 71.1796C20.5 71.1796 18 68.6776 18 65.5898C18 62.5041 20.5 60 23.5878 60C26.6755 60 29.1796 62.5041 29.1796 65.5898Z" stroke="#95ADB8" stroke-width="1.5"/>
<path fill-rule="evenodd" clip-rule="evenodd" d="M61.665 68.8583C61.665 71.5851 59.4537 73.7946 56.7269 73.7946C54.0002 73.7946 51.7925 71.5851 51.7925 68.8583C51.7925 66.1334 54.0002 63.9221 56.7269 63.9221C59.4537 63.9221 61.665 66.1334 61.665 68.8583Z" stroke="#95ADB8" stroke-width="1.5"/>
<path d="M13 93.5461V86.7775C13 80.2713 18.2739 75 24.7775 75C31.2811 75 36.5577 80.2713 36.5577 86.7775V93.5461" stroke="#95ADB8" stroke-width="1.5"/>
<path d="M47.3771 93.5461V87.5689C47.3771 81.8233 52.0344 77.1683 57.7776 77.1683C63.5208 77.1683 68.1805 81.8233 68.1805 87.5689V93.5461" stroke="#95ADB8" stroke-width="1.5"/>
<path d="M25.4242 52.9551H1.71301V93.5469H79V52.9551H56.7328" stroke="#95ADB8" stroke-width="1.5"/>
<path fill-rule="evenodd" clip-rule="evenodd" d="M33.0002 3.81898V37.2455C33.0002 38.8047 34.2615 40.0659 35.8186 40.0659H38.0227V46.6741V59.2006C38.0227 59.8822 38.8758 60.1945 39.3145 59.67L55.7329 40.0659H102.08C103.637 40.0659 104.898 38.8047 104.898 37.2455V3.81898C104.898 2.26183 103.637 1.00061 102.08 1.00061H35.8186C34.2615 1.00061 33.0002 2.26183 33.0002 3.81898Z" fill="#EBF2F4"/>
<path d="M79.3082 1H35.8184C34.2612 1 33 2.26327 33 3.81837V37.2469C33 38.8041 34.2612 40.0653 35.8184 40.0653H38.0224V46.6735V59.2C38.0224 59.8837 38.8755 60.1939 39.3143 59.6694L55.7327 40.0653H102.08C103.637 40.0653 104.9 38.8041 104.9 37.2469V3.81837C104.9 2.26327 103.637 1 102.08 1H96.0551H92.3694" stroke="#95ADB8" stroke-width="1.5"/>
<path fill-rule="evenodd" clip-rule="evenodd" d="M56.0879 21.6075C56.0879 24.4279 53.8002 26.7157 50.9798 26.7157C48.1594 26.7157 45.8737 24.4279 45.8737 21.6075C45.8737 18.7871 48.1594 16.5014 50.9798 16.5014C53.8002 16.5014 56.0879 18.7871 56.0879 21.6075Z" stroke="#95ADB8" stroke-width="1.5"/>
<path fill-rule="evenodd" clip-rule="evenodd" d="M75.7845 21.6075C75.7845 24.4279 73.4967 26.7157 70.6784 26.7157C67.8559 26.7157 65.5702 24.4279 65.5702 21.6075C65.5702 18.7871 67.8559 16.5014 70.6784 16.5014C73.4967 16.5014 75.7845 18.7871 75.7845 21.6075Z" stroke="#95ADB8" stroke-width="1.5"/>
<path fill-rule="evenodd" clip-rule="evenodd" d="M95.4822 21.6075C95.4822 24.4279 93.1945 26.7157 90.3741 26.7157C87.5537 26.7157 85.2679 24.4279 85.2679 21.6075C85.2679 18.7871 87.5537 16.5014 90.3741 16.5014C93.1945 16.5014 95.4822 18.7871 95.4822 21.6075Z" stroke="#95ADB8" stroke-width="1.5"/>
<path d="M88.2945 1H81.7354" stroke="#95ADB8" stroke-width="1.5"/>
</svg>
